<svg xmlns="http://www.w3.org/2000/svg" xmlns:xlink="http://www.w3.org/1999/xlink" width="200" zoomAndPan="magnify" viewBox="0 0 150 37.5" height="50" preserveAspectRatio="xMidYMid meet" version="1.0"><defs><g/></defs><g fill="#ffc107" fill-opacity="1"><g transform="translate(5.647358, 23.408742)"><g><path d="M 0 -6.328125 L 0 -7.953125 L 3.375 -7.953125 C 4.050781 -7.953125 4.628906 -7.71875 5.109375 -7.25 C 5.585938 -6.757812 5.828125 -6.179688 5.828125 -5.515625 C 5.828125 -4.847656 5.585938 -4.269531 5.109375 -3.78125 C 4.617188 -3.3125 4.039062 -3.078125 3.375 -3.078125 L 1.859375 -3.078125 L 1.859375 0.046875 L 0.234375 0.046875 L 0.234375 -6.328125 Z M 1.859375 -4.703125 L 3.375 -4.703125 C 3.601562 -4.703125 3.796875 -4.78125 3.953125 -4.9375 C 4.117188 -5.09375 4.203125 -5.285156 4.203125 -5.515625 C 4.203125 -5.734375 4.117188 -5.921875 3.953125 -6.078125 C 3.796875 -6.242188 3.601562 -6.328125 3.375 -6.328125 L 1.859375 -6.328125 Z M 1.859375 -4.703125 "/></g></g></g><g fill="#ffc107" fill-opacity="1"><g transform="translate(12.013804, 23.408742)"><g><path d="M 0 -3.28125 L 0 -3.515625 C 0 -3.992188 0.0859375 -4.429688 0.265625 -4.828125 C 0.429688 -5.234375 0.675781 -5.597656 1 -5.921875 C 1.300781 -6.222656 1.65625 -6.460938 2.0625 -6.640625 C 2.488281 -6.828125 2.929688 -6.921875 3.390625 -6.921875 L 5.828125 -6.921875 L 5.828125 -6.109375 C 5.878906 -6.066406 5.953125 -6.003906 6.046875 -5.921875 C 6.347656 -5.609375 6.585938 -5.242188 6.765625 -4.828125 C 6.941406 -4.398438 7.03125 -3.960938 7.03125 -3.515625 L 7.03125 -3.28125 C 7.03125 -2.832031 6.941406 -2.394531 6.765625 -1.96875 C 6.585938 -1.550781 6.34375 -1.1875 6.03125 -0.875 C 5.726562 -0.570312 5.367188 -0.332031 4.953125 -0.15625 C 4.546875 0.03125 4.101562 0.125 3.625 0.125 L 3.390625 0.125 C 2.929688 0.125 2.488281 0.03125 2.0625 -0.15625 C 1.65625 -0.332031 1.300781 -0.570312 1 -0.875 C 0.675781 -1.195312 0.429688 -1.5625 0.265625 -1.96875 C 0.0859375 -2.363281 0 -2.800781 0 -3.28125 Z M 1.625 -3.28125 C 1.625 -2.789062 1.796875 -2.375 2.140625 -2.03125 C 2.484375 -1.6875 2.898438 -1.515625 3.390625 -1.515625 L 3.625 -1.515625 C 4.113281 -1.515625 4.53125 -1.6875 4.875 -2.03125 C 5.226562 -2.375 5.40625 -2.789062 5.40625 -3.28125 L 5.40625 -3.515625 C 5.40625 -4.003906 5.226562 -4.421875 4.875 -4.765625 C 4.53125 -5.117188 4.113281 -5.296875 3.625 -5.296875 L 3.390625 -5.296875 C 2.898438 -5.296875 2.484375 -5.117188 2.140625 -4.765625 C 1.796875 -4.421875 1.625 -4.003906 1.625 -3.515625 Z M 1.625 -3.28125 "/></g></g></g><g fill="#ffc107" fill-opacity="1"><g transform="translate(19.677953, 23.408742)"><g><path d="M 0 -5.21875 L 0 -6.84375 L 1.453125 -6.84375 L 1.640625 -6.296875 L 3.078125 -1.859375 L 4.515625 -6.296875 L 4.703125 -6.84375 L 6.265625 -6.84375 L 6.4375 -6.296875 L 7.875 -1.859375 L 9.3125 -6.296875 L 9.5 -6.84375 L 10.953125 -6.84375 L 10.953125 -5.21875 L 10.671875 -5.21875 L 8.984375 0.015625 L 6.765625 0.015625 L 5.46875 -3.984375 L 4.1875 0.015625 L 1.96875 0.015625 L 0.265625 -5.21875 Z M 0 -5.21875 "/></g></g></g><g fill="#ffc107" fill-opacity="1"><g transform="translate(31.717254, 23.408742)"><g><path d="M 0 0.015625 L 0 -6.828125 L 5.046875 -6.828125 L 5.046875 -5.046875 L 3.421875 -5.046875 L 3.421875 -5.203125 L 1.625 -5.203125 L 1.625 -4.171875 L 3.53125 -4.171875 L 3.53125 -2.546875 L 1.625 -2.546875 L 1.625 -1.609375 L 4.859375 -1.609375 L 4.859375 0.015625 Z M 0 0.015625 "/></g></g></g><g fill="#ffc107" fill-opacity="1"><g transform="translate(38.073299, 23.408742)"><g><path d="M 0 -5.203125 L 0 -6.828125 L 2.984375 -6.828125 C 3.585938 -6.828125 4.101562 -6.613281 4.53125 -6.1875 C 4.96875 -5.757812 5.1875 -5.242188 5.1875 -4.640625 C 5.1875 -4.304688 5.113281 -3.988281 4.96875 -3.6875 C 4.820312 -3.394531 4.625 -3.144531 4.375 -2.9375 L 5.59375 0.015625 L 3.84375 0.015625 L 2.8125 -2.453125 L 1.84375 -2.453125 L 1.84375 0.015625 L 0.21875 0.015625 L 0.21875 -5.203125 Z M 1.84375 -4.078125 L 2.984375 -4.078125 C 3.140625 -4.078125 3.273438 -4.128906 3.390625 -4.234375 C 3.503906 -4.347656 3.5625 -4.484375 3.5625 -4.640625 C 3.5625 -4.796875 3.503906 -4.925781 3.390625 -5.03125 C 3.273438 -5.144531 3.140625 -5.203125 2.984375 -5.203125 L 1.84375 -5.203125 Z M 1.84375 -4.078125 "/></g></g></g><g fill="#ffc107" fill-opacity="1"><g transform="translate(44.752383, 23.408742)"><g><path d="M 0 0.015625 L 0 -6.828125 L 5.046875 -6.828125 L 5.046875 -5.046875 L 3.421875 -5.046875 L 3.421875 -5.203125 L 1.625 -5.203125 L 1.625 -4.171875 L 3.53125 -4.171875 L 3.53125 -2.546875 L 1.625 -2.546875 L 1.625 -1.609375 L 4.859375 -1.609375 L 4.859375 0.015625 Z M 0 0.015625 "/></g></g></g><g fill="#ffc107" fill-opacity="1"><g transform="translate(50.891208, 23.408742)"><g><path d="M 0 -5.09375 L 0 -6.84375 L 2.1875 -6.859375 C 2.632812 -6.859375 3.082031 -6.769531 3.53125 -6.59375 C 3.925781 -6.414062 4.285156 -6.171875 4.609375 -5.859375 C 4.929688 -5.523438 5.179688 -5.160156 5.359375 -4.765625 C 5.535156 -4.316406 5.625 -3.867188 5.625 -3.421875 C 5.625 -2.960938 5.535156 -2.507812 5.359375 -2.0625 C 5.179688 -1.65625 4.929688 -1.289062 4.609375 -0.96875 C 4.285156 -0.65625 3.925781 -0.410156 3.53125 -0.234375 C 3.101562 -0.0546875 2.65625 0.03125 2.1875 0.03125 L 0.109375 0.03125 L 0.109375 -5.09375 Z M 1.734375 -1.59375 L 2.1875 -1.59375 C 2.675781 -1.59375 3.097656 -1.769531 3.453125 -2.125 C 3.816406 -2.476562 4 -2.910156 4 -3.421875 C 4 -3.910156 3.816406 -4.332031 3.453125 -4.6875 C 3.097656 -5.050781 2.675781 -5.234375 2.1875 -5.234375 L 1.734375 -5.234375 Z M 1.734375 -1.59375 "/></g></g></g><g fill="#ffc107" fill-opacity="1"><g transform="translate(57.602072, 23.408742)"><g/></g></g><g fill="#ffc107" fill-opacity="1"><g transform="translate(60.647649, 23.408742)"><g><path d="M 0 -5.09375 L 0 -6.84375 L 0.078125 -6.84375 L 0.078125 -6.859375 L 3.15625 -6.859375 C 3.707031 -6.859375 4.175781 -6.660156 4.5625 -6.265625 C 4.957031 -5.878906 5.15625 -5.410156 5.15625 -4.859375 L 5.15625 -4.625 C 5.15625 -4.289062 5.082031 -3.984375 4.9375 -3.703125 C 5.375 -3.304688 5.59375 -2.8125 5.59375 -2.21875 L 5.59375 -2 C 5.59375 -1.4375 5.394531 -0.957031 5 -0.5625 C 4.601562 -0.164062 4.125 0.03125 3.5625 0.03125 L 0.078125 0.03125 L 0.078125 -5.09375 Z M 1.71875 -1.59375 L 3.5625 -1.59375 C 3.675781 -1.59375 3.769531 -1.628906 3.84375 -1.703125 C 3.914062 -1.785156 3.953125 -1.882812 3.953125 -2 L 3.953125 -2.21875 C 3.953125 -2.332031 3.914062 -2.425781 3.84375 -2.5 C 3.769531 -2.582031 3.675781 -2.625 3.5625 -2.625 L 1.71875 -2.625 Z M 1.71875 -4.25 L 3.15625 -4.25 C 3.257812 -4.25 3.347656 -4.285156 3.421875 -4.359375 C 3.492188 -4.429688 3.53125 -4.519531 3.53125 -4.625 L 3.53125 -4.859375 C 3.53125 -4.960938 3.492188 -5.050781 3.421875 -5.125 C 3.347656 -5.195312 3.257812 -5.234375 3.15625 -5.234375 L 1.71875 -5.234375 Z M 1.71875 -4.25 "/></g></g></g><g fill="#ffc107" fill-opacity="1"><g transform="translate(66.664482, 23.408742)"><g><path d="M 0 -6.84375 L 1.921875 -6.84375 L 3.390625 -4.484375 L 4.859375 -6.84375 L 6.765625 -6.84375 L 4.1875 -2.703125 L 4.1875 0.015625 L 2.5625 0.015625 L 2.5625 -2.75 Z M 0 -6.84375 "/></g></g></g><g fill="#ffc107" fill-opacity="1"><g transform="translate(74.036271, 23.134733)"><g/></g></g><g fill="#ffc107" fill-opacity="1"><g transform="translate(78.204569, 23.134733)"><g><path d="M 0 -8.65625 L 0 -10.875 L 2.609375 -10.875 L 2.609375 -6.421875 L 6.40625 -6.421875 L 6.40625 -10.875 L 8.625 -10.875 L 8.625 0 L 6.40625 0 L 6.40625 -4.203125 L 2.609375 -4.203125 L 2.609375 0.03125 L 0.390625 0.03125 L 0.390625 -8.65625 Z M 0 -8.65625 "/></g></g></g><g fill="#ffc107" fill-opacity="1"><g transform="translate(88.306903, 23.134733)"><g><path d="M 0 -5.4375 C 0 -6.195312 0.144531 -6.914062 0.4375 -7.59375 C 0.71875 -8.25 1.113281 -8.84375 1.625 -9.375 C 2.175781 -9.894531 2.769531 -10.296875 3.40625 -10.578125 C 4.101562 -10.859375 4.828125 -11 5.578125 -11 C 5.753906 -11 5.878906 -10.992188 5.953125 -10.984375 L 5.953125 -11 L 9.40625 -11 L 9.40625 -9.484375 C 9.425781 -9.472656 9.445312 -9.453125 9.46875 -9.421875 C 9.5 -9.398438 9.519531 -9.382812 9.53125 -9.375 C 10.050781 -8.84375 10.445312 -8.25 10.71875 -7.59375 C 11.019531 -6.914062 11.171875 -6.195312 11.171875 -5.4375 C 11.171875 -4.664062 11.019531 -3.9375 10.71875 -3.25 C 10.4375 -2.59375 10.039062 -2 9.53125 -1.46875 C 9.007812 -0.957031 8.414062 -0.5625 7.75 -0.28125 C 7.0625 0.0195312 6.335938 0.171875 5.578125 0.171875 C 4.816406 0.171875 4.09375 0.0195312 3.40625 -0.28125 C 2.75 -0.5625 2.15625 -0.957031 1.625 -1.46875 C 1.113281 -2 0.71875 -2.59375 0.4375 -3.25 C 0.144531 -3.9375 0 -4.664062 0 -5.4375 Z M 2.671875 -7.109375 C 2.367188 -6.597656 2.21875 -6.035156 2.21875 -5.421875 C 2.21875 -4.816406 2.367188 -4.253906 2.671875 -3.734375 C 2.972656 -3.222656 3.378906 -2.816406 3.890625 -2.515625 C 4.410156 -2.210938 4.972656 -2.0625 5.578125 -2.0625 C 6.503906 -2.0625 7.296875 -2.390625 7.953125 -3.046875 C 8.609375 -3.710938 8.9375 -4.507812 8.9375 -5.4375 C 8.9375 -6.039062 8.785156 -6.597656 8.484375 -7.109375 C 8.179688 -7.628906 7.769531 -8.035156 7.25 -8.328125 C 6.738281 -8.628906 6.179688 -8.78125 5.578125 -8.78125 C 4.972656 -8.78125 4.410156 -8.628906 3.890625 -8.328125 C 3.378906 -8.035156 2.972656 -7.628906 2.671875 -7.109375 Z M 2.671875 -7.109375 "/></g></g></g><g fill="#ffc107" fill-opacity="1"><g transform="translate(100.942057, 23.134733)"><g><path d="M 0 -7.703125 C 0 -8.585938 0.316406 -9.351562 0.953125 -10 C 1.578125 -10.632812 2.34375 -10.953125 3.25 -10.953125 L 6.890625 -10.953125 L 6.890625 -8.734375 L 3.25 -8.734375 C 2.96875 -8.734375 2.722656 -8.628906 2.515625 -8.421875 C 2.316406 -8.222656 2.21875 -7.984375 2.21875 -7.703125 C 2.21875 -7.429688 2.316406 -7.191406 2.515625 -6.984375 C 2.722656 -6.785156 2.96875 -6.6875 3.25 -6.6875 L 4.609375 -6.6875 C 5.546875 -6.6875 6.335938 -6.351562 6.984375 -5.6875 C 7.648438 -5.039062 7.984375 -4.25 7.984375 -3.3125 C 7.984375 -2.382812 7.648438 -1.59375 6.984375 -0.9375 C 6.335938 -0.28125 5.546875 0.046875 4.609375 0.046875 L 0.109375 0.046875 L 0.109375 -2.53125 L 2.34375 -2.53125 L 2.34375 -2.171875 L 4.609375 -2.171875 C 4.921875 -2.171875 5.1875 -2.28125 5.40625 -2.5 C 5.632812 -2.726562 5.75 -3.003906 5.75 -3.328125 C 5.75 -3.628906 5.632812 -3.890625 5.40625 -4.109375 C 5.1875 -4.335938 4.921875 -4.453125 4.609375 -4.453125 L 3.25 -4.453125 C 2.351562 -4.453125 1.585938 -4.773438 0.953125 -5.421875 C 0.316406 -6.046875 0 -6.804688 0 -7.703125 Z M 0 -7.703125 "/></g></g></g><g fill="#ffc107" fill-opacity="1"><g transform="translate(109.357606, 23.134733)"><g><path d="M 0 -8.375 L 0 -10.875 L 8.390625 -10.875 L 8.390625 -8.65625 L 5.28125 -8.65625 L 5.28125 0.015625 L 3.0625 0.015625 L 3.0625 -8.65625 L 2.21875 -8.65625 L 2.21875 -8.375 Z M 0 -8.375 "/></g></g></g><g fill="#ffc107" fill-opacity="1"><g transform="translate(119.221131, 23.134733)"><g><path d="M 0.015625 0.046875 L 0.015625 -10.875 L 2.234375 -10.875 L 2.234375 0.046875 Z M 0.015625 0.046875 "/></g></g></g><g fill="#ffc107" fill-opacity="1"><g transform="translate(123.425612, 23.134733)"><g><path d="M 0 -8.640625 L 0 -10.875 L 5.03125 -10.875 C 5.925781 -10.875 6.695312 -10.554688 7.34375 -9.921875 C 7.644531 -9.617188 7.878906 -9.265625 8.046875 -8.859375 C 8.210938 -8.460938 8.296875 -8.050781 8.296875 -7.625 C 8.296875 -6.96875 8.117188 -6.375 7.765625 -5.84375 C 7.796875 -5.820312 7.84375 -5.78125 7.90625 -5.71875 C 7.96875 -5.664062 8.007812 -5.628906 8.03125 -5.609375 C 8.675781 -4.960938 9 -4.179688 9 -3.265625 C 9 -2.347656 8.675781 -1.570312 8.03125 -0.9375 C 7.382812 -0.28125 6.601562 0.046875 5.6875 0.046875 L 0.375 0.046875 L 0.375 -8.640625 Z M 2.59375 -2.171875 L 5.6875 -2.171875 C 5.988281 -2.171875 6.242188 -2.28125 6.453125 -2.5 C 6.671875 -2.71875 6.78125 -2.972656 6.78125 -3.265625 C 6.78125 -3.554688 6.671875 -3.804688 6.453125 -4.015625 C 6.242188 -4.234375 5.988281 -4.34375 5.6875 -4.34375 L 2.59375 -4.34375 Z M 2.59375 -6.5625 L 5.03125 -6.5625 C 5.3125 -6.5625 5.550781 -6.664062 5.75 -6.875 C 5.957031 -7.082031 6.0625 -7.332031 6.0625 -7.625 C 6.0625 -7.90625 5.957031 -8.144531 5.75 -8.34375 C 5.550781 -8.550781 5.3125 -8.65625 5.03125 -8.65625 L 2.59375 -8.65625 Z M 2.59375 -6.5625 "/></g></g></g><g fill="#ffc107" fill-opacity="1"><g transform="translate(133.897014, 23.134733)"><g><path d="M 0 -8.640625 L 0 -10.875 L 2.5625 -10.875 L 2.5625 -4.265625 C 2.5625 -3.691406 2.765625 -3.195312 3.171875 -2.78125 C 3.585938 -2.375 4.082031 -2.171875 4.65625 -2.171875 C 5.238281 -2.171875 5.734375 -2.375 6.140625 -2.78125 C 6.546875 -3.195312 6.75 -3.691406 6.75 -4.265625 L 6.75 -10.875 L 9.34375 -10.875 L 9.34375 -8.640625 L 8.96875 -8.640625 L 8.96875 -4.265625 C 8.96875 -3.671875 8.851562 -3.113281 8.625 -2.59375 C 8.425781 -2.082031 8.117188 -1.625 7.703125 -1.21875 C 7.304688 -0.8125 6.847656 -0.503906 6.328125 -0.296875 C 5.796875 -0.0664062 5.238281 0.046875 4.65625 0.046875 C 4.082031 0.046875 3.523438 -0.0664062 2.984375 -0.296875 C 2.453125 -0.503906 1.992188 -0.8125 1.609375 -1.21875 C 1.210938 -1.613281 0.90625 -2.070312 0.6875 -2.59375 C 0.457031 -3.113281 0.34375 -3.671875 0.34375 -4.265625 L 0.34375 -8.640625 Z M 0 -8.640625 "/></g></g></g></svg>