<svg xmlns="http://www.w3.org/2000/svg" xmlns:xlink="http://www.w3.org/1999/xlink" width="200" zoomAndPan="magnify" viewBox="0 0 150 37.5" height="50" preserveAspectRatio="xMidYMid meet" version="1.0"><defs><g/></defs><g fill="#cccccc" fill-opacity="1"><g transform="translate(4.803286, 22.764225)"><g><path d="M 0 -6.484375 L 0 -8.15625 L 3.453125 -8.171875 C 4.160156 -8.171875 4.753906 -7.925781 5.234375 -7.4375 C 5.722656 -6.9375 5.96875 -6.34375 5.96875 -5.65625 C 5.96875 -4.976562 5.722656 -4.390625 5.234375 -3.890625 C 4.742188 -3.398438 4.148438 -3.15625 3.453125 -3.15625 L 1.90625 -3.15625 L 1.90625 0.046875 L 0.25 0.046875 L 0.25 -6.484375 Z M 1.90625 -4.8125 L 3.453125 -4.8125 C 3.691406 -4.8125 3.894531 -4.894531 4.0625 -5.0625 C 4.226562 -5.226562 4.3125 -5.425781 4.3125 -5.65625 C 4.3125 -5.882812 4.226562 -6.082031 4.0625 -6.25 C 3.894531 -6.414062 3.691406 -6.5 3.453125 -6.5 L 1.90625 -6.5 Z M 1.90625 -4.8125 "/></g></g></g><g fill="#cccccc" fill-opacity="1"><g transform="translate(11.32664, 22.764225)"><g><path d="M 0 -3.375 L 0 -3.609375 C 0 -4.097656 0.09375 -4.546875 0.28125 -4.953125 C 0.4375 -5.367188 0.679688 -5.742188 1.015625 -6.078125 C 1.328125 -6.390625 1.695312 -6.632812 2.125 -6.8125 C 2.550781 -7 3.003906 -7.09375 3.484375 -7.09375 L 5.984375 -7.09375 L 5.984375 -6.265625 C 6.035156 -6.222656 6.109375 -6.160156 6.203125 -6.078125 C 6.515625 -5.753906 6.757812 -5.378906 6.9375 -4.953125 C 7.125 -4.515625 7.21875 -4.066406 7.21875 -3.609375 L 7.21875 -3.375 C 7.21875 -2.90625 7.125 -2.453125 6.9375 -2.015625 C 6.757812 -1.585938 6.507812 -1.210938 6.1875 -0.890625 C 5.875 -0.578125 5.503906 -0.332031 5.078125 -0.15625 C 4.660156 0.03125 4.207031 0.125 3.71875 0.125 L 3.484375 0.125 C 3.003906 0.125 2.550781 0.03125 2.125 -0.15625 C 1.695312 -0.34375 1.328125 -0.59375 1.015625 -0.90625 C 0.679688 -1.238281 0.4375 -1.609375 0.28125 -2.015625 C 0.09375 -2.429688 0 -2.882812 0 -3.375 Z M 1.671875 -3.375 C 1.671875 -2.875 1.847656 -2.441406 2.203125 -2.078125 C 2.554688 -1.722656 2.984375 -1.546875 3.484375 -1.546875 L 3.71875 -1.546875 C 4.21875 -1.546875 4.644531 -1.722656 5 -2.078125 C 5.363281 -2.441406 5.546875 -2.875 5.546875 -3.375 L 5.546875 -3.609375 C 5.546875 -4.109375 5.363281 -4.535156 5 -4.890625 C 4.644531 -5.242188 4.21875 -5.421875 3.71875 -5.421875 L 3.484375 -5.421875 C 2.984375 -5.421875 2.554688 -5.242188 2.203125 -4.890625 C 1.847656 -4.535156 1.671875 -4.109375 1.671875 -3.609375 Z M 1.671875 -3.375 "/></g></g></g><g fill="#cccccc" fill-opacity="1"><g transform="translate(19.179796, 22.764225)"><g><path d="M 0 -5.359375 L 0 -7.03125 L 1.484375 -7.03125 L 1.671875 -6.453125 L 3.15625 -1.90625 L 4.640625 -6.453125 L 4.8125 -7.03125 L 6.421875 -7.03125 L 6.609375 -6.453125 L 8.078125 -1.90625 L 9.5625 -6.453125 L 9.75 -7.03125 L 11.234375 -7.03125 L 11.234375 -5.359375 L 10.953125 -5.359375 L 9.21875 0.015625 L 6.9375 0.015625 L 5.609375 -4.078125 L 4.296875 0.015625 L 2.03125 0.015625 L 0.28125 -5.359375 Z M 0 -5.359375 "/></g></g></g><g fill="#cccccc" fill-opacity="1"><g transform="translate(31.516439, 22.764225)"><g><path d="M 0 0.015625 L 0 -7 L 5.1875 -7 L 5.1875 -5.1875 L 3.515625 -5.1875 L 3.515625 -5.34375 L 1.671875 -5.34375 L 1.671875 -4.28125 L 3.625 -4.28125 L 3.625 -2.609375 L 1.671875 -2.609375 L 1.671875 -1.640625 L 4.984375 -1.640625 L 4.984375 0.015625 Z M 0 0.015625 "/></g></g></g><g fill="#cccccc" fill-opacity="1"><g transform="translate(38.029589, 22.764225)"><g><path d="M 0 -5.34375 L 0 -7 L 3.0625 -7 C 3.6875 -7 4.21875 -6.78125 4.65625 -6.34375 C 5.09375 -5.90625 5.3125 -5.378906 5.3125 -4.765625 C 5.3125 -4.421875 5.238281 -4.09375 5.09375 -3.78125 C 4.945312 -3.476562 4.742188 -3.222656 4.484375 -3.015625 L 5.734375 0.015625 L 3.9375 0.015625 L 2.890625 -2.515625 L 1.890625 -2.515625 L 1.890625 0.015625 L 0.21875 0.015625 L 0.21875 -5.34375 Z M 1.890625 -4.1875 L 3.0625 -4.1875 C 3.226562 -4.1875 3.367188 -4.242188 3.484375 -4.359375 C 3.597656 -4.472656 3.65625 -4.609375 3.65625 -4.765625 C 3.65625 -4.921875 3.597656 -5.054688 3.484375 -5.171875 C 3.367188 -5.285156 3.226562 -5.34375 3.0625 -5.34375 L 1.890625 -5.34375 Z M 1.890625 -4.1875 "/></g></g></g><g fill="#cccccc" fill-opacity="1"><g transform="translate(44.87363, 22.764225)"><g><path d="M 0 0.015625 L 0 -7 L 5.1875 -7 L 5.1875 -5.1875 L 3.515625 -5.1875 L 3.515625 -5.34375 L 1.671875 -5.34375 L 1.671875 -4.28125 L 3.625 -4.28125 L 3.625 -2.609375 L 1.671875 -2.609375 L 1.671875 -1.640625 L 4.984375 -1.640625 L 4.984375 0.015625 Z M 0 0.015625 "/></g></g></g><g fill="#cccccc" fill-opacity="1"><g transform="translate(51.16407, 22.764225)"><g><path d="M 0 -5.234375 L 0 -7.03125 L 2.234375 -7.046875 C 2.691406 -7.046875 3.15625 -6.953125 3.625 -6.765625 C 4.03125 -6.585938 4.398438 -6.335938 4.734375 -6.015625 C 5.066406 -5.671875 5.320312 -5.296875 5.5 -4.890625 C 5.6875 -4.421875 5.78125 -3.957031 5.78125 -3.5 C 5.78125 -3.03125 5.6875 -2.570312 5.5 -2.125 C 5.320312 -1.707031 5.066406 -1.332031 4.734375 -1 C 4.398438 -0.675781 4.03125 -0.425781 3.625 -0.25 C 3.1875 -0.0625 2.722656 0.03125 2.234375 0.03125 L 0.109375 0.03125 L 0.109375 -5.234375 Z M 1.78125 -1.640625 L 2.234375 -1.640625 C 2.742188 -1.640625 3.179688 -1.820312 3.546875 -2.1875 C 3.921875 -2.550781 4.109375 -2.988281 4.109375 -3.5 C 4.109375 -4.007812 3.921875 -4.445312 3.546875 -4.8125 C 3.179688 -5.1875 2.742188 -5.375 2.234375 -5.375 L 1.78125 -5.375 Z M 1.78125 -1.640625 "/></g></g></g><g fill="#cccccc" fill-opacity="1"><g transform="translate(58.040677, 22.764225)"><g/></g></g><g fill="#cccccc" fill-opacity="1"><g transform="translate(61.161473, 22.764225)"><g><path d="M 0 -5.234375 L 0 -7.03125 L 0.09375 -7.03125 L 0.09375 -7.046875 L 3.234375 -7.046875 C 3.804688 -7.046875 4.289062 -6.84375 4.6875 -6.4375 C 5.09375 -6.039062 5.296875 -5.554688 5.296875 -4.984375 L 5.296875 -4.75 C 5.296875 -4.40625 5.21875 -4.085938 5.0625 -3.796875 C 5.507812 -3.390625 5.734375 -2.882812 5.734375 -2.28125 L 5.734375 -2.046875 C 5.734375 -1.472656 5.53125 -0.984375 5.125 -0.578125 C 4.71875 -0.171875 4.226562 0.03125 3.65625 0.03125 L 0.09375 0.03125 L 0.09375 -5.234375 Z M 1.765625 -1.640625 L 3.65625 -1.640625 C 3.769531 -1.640625 3.863281 -1.675781 3.9375 -1.75 C 4.019531 -1.832031 4.0625 -1.929688 4.0625 -2.046875 L 4.0625 -2.28125 C 4.0625 -2.394531 4.019531 -2.488281 3.9375 -2.5625 C 3.863281 -2.644531 3.769531 -2.6875 3.65625 -2.6875 L 1.765625 -2.6875 Z M 1.765625 -4.359375 L 3.234375 -4.359375 C 3.335938 -4.359375 3.425781 -4.394531 3.5 -4.46875 C 3.582031 -4.550781 3.625 -4.644531 3.625 -4.75 L 3.625 -4.984375 C 3.625 -5.085938 3.582031 -5.175781 3.5 -5.25 C 3.425781 -5.332031 3.335938 -5.375 3.234375 -5.375 L 1.765625 -5.375 Z M 1.765625 -4.359375 "/></g></g></g><g fill="#cccccc" fill-opacity="1"><g transform="translate(67.326529, 22.764225)"><g><path d="M 0 -7.03125 L 1.96875 -7.03125 L 3.46875 -4.609375 L 4.984375 -7.03125 L 6.9375 -7.03125 L 4.296875 -2.765625 L 4.296875 0.015625 L 2.625 0.015625 L 2.625 -2.8125 Z M 0 -7.03125 "/></g></g></g><g fill="#fefefe" fill-opacity="1"><g transform="translate(74.036271, 23.134733)"><g/></g></g><g fill="#fefefe" fill-opacity="1"><g transform="translate(78.204569, 23.134733)"><g><path d="M 0 -8.65625 L 0 -10.875 L 2.609375 -10.875 L 2.609375 -6.421875 L 6.40625 -6.421875 L 6.40625 -10.875 L 8.625 -10.875 L 8.625 0 L 6.40625 0 L 6.40625 -4.203125 L 2.609375 -4.203125 L 2.609375 0.03125 L 0.390625 0.03125 L 0.390625 -8.65625 Z M 0 -8.65625 "/></g></g></g><g fill="#fefefe" fill-opacity="1"><g transform="translate(88.306903, 23.134733)"><g><path d="M 0 -5.4375 C 0 -6.195312 0.144531 -6.914062 0.4375 -7.59375 C 0.71875 -8.25 1.113281 -8.84375 1.625 -9.375 C 2.175781 -9.894531 2.769531 -10.296875 3.40625 -10.578125 C 4.101562 -10.859375 4.828125 -11 5.578125 -11 C 5.753906 -11 5.878906 -10.992188 5.953125 -10.984375 L 5.953125 -11 L 9.40625 -11 L 9.40625 -9.484375 C 9.425781 -9.472656 9.445312 -9.453125 9.46875 -9.421875 C 9.5 -9.398438 9.519531 -9.382812 9.53125 -9.375 C 10.050781 -8.84375 10.445312 -8.25 10.71875 -7.59375 C 11.019531 -6.914062 11.171875 -6.195312 11.171875 -5.4375 C 11.171875 -4.664062 11.019531 -3.9375 10.71875 -3.25 C 10.4375 -2.59375 10.039062 -2 9.53125 -1.46875 C 9.007812 -0.957031 8.414062 -0.5625 7.75 -0.28125 C 7.0625 0.0195312 6.335938 0.171875 5.578125 0.171875 C 4.816406 0.171875 4.09375 0.0195312 3.40625 -0.28125 C 2.75 -0.5625 2.15625 -0.957031 1.625 -1.46875 C 1.113281 -2 0.71875 -2.59375 0.4375 -3.25 C 0.144531 -3.9375 0 -4.664062 0 -5.4375 Z M 2.671875 -7.109375 C 2.367188 -6.597656 2.21875 -6.035156 2.21875 -5.421875 C 2.21875 -4.816406 2.367188 -4.253906 2.671875 -3.734375 C 2.972656 -3.222656 3.378906 -2.816406 3.890625 -2.515625 C 4.410156 -2.210938 4.972656 -2.0625 5.578125 -2.0625 C 6.503906 -2.0625 7.296875 -2.390625 7.953125 -3.046875 C 8.609375 -3.710938 8.9375 -4.507812 8.9375 -5.4375 C 8.9375 -6.039062 8.785156 -6.597656 8.484375 -7.109375 C 8.179688 -7.628906 7.769531 -8.035156 7.25 -8.328125 C 6.738281 -8.628906 6.179688 -8.78125 5.578125 -8.78125 C 4.972656 -8.78125 4.410156 -8.628906 3.890625 -8.328125 C 3.378906 -8.035156 2.972656 -7.628906 2.671875 -7.109375 Z M 2.671875 -7.109375 "/></g></g></g><g fill="#fefefe" fill-opacity="1"><g transform="translate(100.942057, 23.134733)"><g><path d="M 0 -7.703125 C 0 -8.585938 0.316406 -9.351562 0.953125 -10 C 1.578125 -10.632812 2.34375 -10.953125 3.25 -10.953125 L 6.890625 -10.953125 L 6.890625 -8.734375 L 3.25 -8.734375 C 2.96875 -8.734375 2.722656 -8.628906 2.515625 -8.421875 C 2.316406 -8.222656 2.21875 -7.984375 2.21875 -7.703125 C 2.21875 -7.429688 2.316406 -7.191406 2.515625 -6.984375 C 2.722656 -6.785156 2.96875 -6.6875 3.25 -6.6875 L 4.609375 -6.6875 C 5.546875 -6.6875 6.335938 -6.351562 6.984375 -5.6875 C 7.648438 -5.039062 7.984375 -4.25 7.984375 -3.3125 C 7.984375 -2.382812 7.648438 -1.59375 6.984375 -0.9375 C 6.335938 -0.28125 5.546875 0.046875 4.609375 0.046875 L 0.109375 0.046875 L 0.109375 -2.53125 L 2.34375 -2.53125 L 2.34375 -2.171875 L 4.609375 -2.171875 C 4.921875 -2.171875 5.1875 -2.28125 5.40625 -2.5 C 5.632812 -2.726562 5.75 -3.003906 5.75 -3.328125 C 5.75 -3.628906 5.632812 -3.890625 5.40625 -4.109375 C 5.1875 -4.335938 4.921875 -4.453125 4.609375 -4.453125 L 3.25 -4.453125 C 2.351562 -4.453125 1.585938 -4.773438 0.953125 -5.421875 C 0.316406 -6.046875 0 -6.804688 0 -7.703125 Z M 0 -7.703125 "/></g></g></g><g fill="#fefefe" fill-opacity="1"><g transform="translate(109.357606, 23.134733)"><g><path d="M 0 -8.375 L 0 -10.875 L 8.390625 -10.875 L 8.390625 -8.65625 L 5.28125 -8.65625 L 5.28125 0.015625 L 3.0625 0.015625 L 3.0625 -8.65625 L 2.21875 -8.65625 L 2.21875 -8.375 Z M 0 -8.375 "/></g></g></g><g fill="#fefefe" fill-opacity="1"><g transform="translate(119.221131, 23.134733)"><g><path d="M 0.015625 0.046875 L 0.015625 -10.875 L 2.234375 -10.875 L 2.234375 0.046875 Z M 0.015625 0.046875 "/></g></g></g><g fill="#fefefe" fill-opacity="1"><g transform="translate(123.425612, 23.134733)"><g><path d="M 0 -8.640625 L 0 -10.875 L 5.03125 -10.875 C 5.925781 -10.875 6.695312 -10.554688 7.34375 -9.921875 C 7.644531 -9.617188 7.878906 -9.265625 8.046875 -8.859375 C 8.210938 -8.460938 8.296875 -8.050781 8.296875 -7.625 C 8.296875 -6.96875 8.117188 -6.375 7.765625 -5.84375 C 7.796875 -5.820312 7.84375 -5.78125 7.90625 -5.71875 C 7.96875 -5.664062 8.007812 -5.628906 8.03125 -5.609375 C 8.675781 -4.960938 9 -4.179688 9 -3.265625 C 9 -2.347656 8.675781 -1.570312 8.03125 -0.9375 C 7.382812 -0.28125 6.601562 0.046875 5.6875 0.046875 L 0.375 0.046875 L 0.375 -8.640625 Z M 2.59375 -2.171875 L 5.6875 -2.171875 C 5.988281 -2.171875 6.242188 -2.28125 6.453125 -2.5 C 6.671875 -2.71875 6.78125 -2.972656 6.78125 -3.265625 C 6.78125 -3.554688 6.671875 -3.804688 6.453125 -4.015625 C 6.242188 -4.234375 5.988281 -4.34375 5.6875 -4.34375 L 2.59375 -4.34375 Z M 2.59375 -6.5625 L 5.03125 -6.5625 C 5.3125 -6.5625 5.550781 -6.664062 5.75 -6.875 C 5.957031 -7.082031 6.0625 -7.332031 6.0625 -7.625 C 6.0625 -7.90625 5.957031 -8.144531 5.75 -8.34375 C 5.550781 -8.550781 5.3125 -8.65625 5.03125 -8.65625 L 2.59375 -8.65625 Z M 2.59375 -6.5625 "/></g></g></g><g fill="#fefefe" fill-opacity="1"><g transform="translate(133.897014, 23.134733)"><g><path d="M 0 -8.640625 L 0 -10.875 L 2.5625 -10.875 L 2.5625 -4.265625 C 2.5625 -3.691406 2.765625 -3.195312 3.171875 -2.78125 C 3.585938 -2.375 4.082031 -2.171875 4.65625 -2.171875 C 5.238281 -2.171875 5.734375 -2.375 6.140625 -2.78125 C 6.546875 -3.195312 6.75 -3.691406 6.75 -4.265625 L 6.75 -10.875 L 9.34375 -10.875 L 9.34375 -8.640625 L 8.96875 -8.640625 L 8.96875 -4.265625 C 8.96875 -3.671875 8.851562 -3.113281 8.625 -2.59375 C 8.425781 -2.082031 8.117188 -1.625 7.703125 -1.21875 C 7.304688 -0.8125 6.847656 -0.503906 6.328125 -0.296875 C 5.796875 -0.0664062 5.238281 0.046875 4.65625 0.046875 C 4.082031 0.046875 3.523438 -0.0664062 2.984375 -0.296875 C 2.453125 -0.503906 1.992188 -0.8125 1.609375 -1.21875 C 1.210938 -1.613281 0.90625 -2.070312 0.6875 -2.59375 C 0.457031 -3.113281 0.34375 -3.671875 0.34375 -4.265625 L 0.34375 -8.640625 Z M 0 -8.640625 "/></g></g></g></svg>